<svg id="eBS19GPe3nR1" xmlns="http://www.w3.org/2000/svg" xmlns:xlink="http://www.w3.org/1999/xlink" viewBox="0 0 100 125" shape-rendering="geometricPrecision" text-rendering="geometricPrecision"><rect width="10.856" height="10.859" rx="0" ry="0" transform="translate(83.333 83.163)"/><rect width="10.859" height="10.854" rx="0" ry="0" transform="translate(72.474 72.31)"/><rect width="10.876" height="10.859" rx="0" ry="0" transform="translate(29.025 83.163)"/><rect width="10.856" height="10.854" rx="0" ry="0" transform="translate(18.169 72.31)"/><rect width="10.859" height="10.859" rx="0" ry="0" transform="translate(7.31 83.163)"/><rect width="21.716" height="10.854" rx="0" ry="0" transform="translate(39.901 72.31)"/><rect width="10.856" height="10.859" rx="0" ry="0" transform="translate(61.617 83.163)"/><path d="M39.901,61.44h21.716v10.87h10.856v-10.87h21.716v-21.72h-10.856v-10.853h-10.859v-10.867h-10.857v-10.854h-21.716v10.854h-10.876v10.867h-10.856v10.854h-10.859v21.72h21.716v10.869h10.876v-10.87h-.001ZM61.617,39.721h10.856v10.864h-10.856v-10.864Zm-32.592,0h10.876v10.864h-10.876v-10.864Z"/></svg>
