<svg id="e8m06QYUVF41" xmlns="http://www.w3.org/2000/svg" xmlns:xlink="http://www.w3.org/1999/xlink" viewBox="0 0 100 125" shape-rendering="geometricPrecision" text-rendering="geometricPrecision"><g><g><rect width="7.9" height="7.9" rx="0" ry="0" transform="translate(65.8 73.7)"/><rect width="7.9" height="7.9" rx="0" ry="0" transform="translate(26.3 73.7)"/><rect width="7.9" height="7.9" rx="0" ry="0" transform="translate(18.4 65.8)"/><rect width="7.9" height="7.9" rx="0" ry="0" transform="translate(73.7 65.8)"/><path d="M73.7,42.1v-7.9h-7.9v-7.9h-7.9v-7.9h-7.9-7.9v7.9h-7.9v7.9h-7.9v7.9h-7.9v7.9v7.9h7.9v7.9h7.9v-7.9h7.9v7.9h7.9h7.9v-7.9h7.9v7.9h7.9v-7.9h7.9v-7.9-7.9h-7.9ZM34.2,50v-7.9h7.9v7.9h-7.9Zm23.7,0v-7.9h7.9v7.9h-7.9Z"/></g></g></svg>
