<svg id="eQqpWtf7hs41" xmlns="http://www.w3.org/2000/svg" xmlns:xlink="http://www.w3.org/1999/xlink" viewBox="0 0 100 125" shape-rendering="geometricPrecision" text-rendering="geometricPrecision"><g><g><path d="M89.5,34.2v-7.9h-7.9-7.9-7.9v-7.9h-7.9-7.9-7.9-7.9v7.9h-7.9-7.9-7.9v7.9h-7.8v7.9v7.9v7.9h7.9h7.9h7.9v7.9h-7.9v7.9h7.9h7.9v-7.9h7.9v-7.9h7.8h7.9v7.9h7.9v7.9h7.9h7.9v-7.9h-7.9v-7.9h7.9h7.9h7.9v-7.9-7.9-7.9h-7.9ZM34.2,50h-7.9v-7.9h7.9h7.9v7.9h-7.9Zm31.6,0h-7.9v-7.9h7.9h7.9v7.9h-7.9Z"/><polygon points="42.1,65.8 42.1,73.7 50,73.7 57.9,73.7 57.9,65.8 50,65.8"/><polygon points="2.7,73.7 2.7,81.6 10.5,81.6 18.4,81.6 18.4,73.7 10.5,73.7"/><polygon points="89.5,81.6 97.3,81.6 97.3,73.7 89.5,73.7 81.6,73.7 81.6,81.6"/></g></g></svg>
