<svg id="eKbqfQ805AB1" xmlns="http://www.w3.org/2000/svg" xmlns:xlink="http://www.w3.org/1999/xlink" viewBox="0 0 100 125" shape-rendering="geometricPrecision" text-rendering="geometricPrecision"><g><g><polygon points="53.9,73.7 53.9,81.6 61.8,81.6 69.7,81.6 69.7,73.7 61.8,73.7"/><polygon points="38.2,81.6 46.1,81.6 46.1,73.7 38.2,73.7 30.3,73.7 30.3,81.6"/><path d="M85.5,50v-7.9h-7.9v-7.9h-7.9v-7.9h-7.9v7.9h-7.9-7.9-7.9v-7.9h-7.9v7.9h-7.9v7.9h-7.9v7.9h-7.8v7.9v7.9v7.9h7.9v-7.9-7.9h7.9v7.9v7.9h7.9v-7.9h7.9h7.9h7.9h7.9h7.9v7.9h7.9v-7.9-7.9h7.9v7.9v7.9h7.9v-7.9-7.9-7.9h-8ZM69.7,42.1v7.9h-7.9v-7.9h7.9Zm-31.5,0v7.9h-7.9v-7.9h7.9Z"/><rect width="7.9" height="7.9" rx="0" ry="0" transform="translate(22.4 18.4)"/><rect width="7.9" height="7.9" rx="0" ry="0" transform="translate(69.7 18.4)"/></g></g><text dx="0" dy="0" font-family="&quot;Helvetica Neue, Helvetica, Arial-Unicode, Arial, sans-serif&quot;" font-size="5" font-weight="700" transform="translate(0 115)"><tspan y="0" font-weight="700"><![CDATA[
 
]]></tspan></text><text dx="0" dy="0" font-family="&quot;Helvetica Neue, Helvetica, Arial-Unicode, Arial, sans-serif&quot;" font-size="5" font-weight="700" transform="translate(0 120)"><tspan y="0" font-weight="700"><![CDATA[

]]></tspan></text></svg>
