<svg id="eVFKJ9PMNkz1" xmlns="http://www.w3.org/2000/svg" xmlns:xlink="http://www.w3.org/1999/xlink" viewBox="0 0 100 125" shape-rendering="geometricPrecision" text-rendering="geometricPrecision"><g><g><rect width="7.9" height="7.9" rx="0" ry="0" transform="translate(14.5 73.7)"/><rect width="7.9" height="7.9" rx="0" ry="0" transform="translate(77.6 73.7)"/><rect width="7.9" height="7.9" rx="0" ry="0" transform="translate(22.4 18.4)"/><rect width="7.9" height="7.9" rx="0" ry="0" transform="translate(69.7 18.4)"/><path d="M85.5,26.3v7.9v7.9h-7.9v-7.9h-7.9v-7.9h-7.9v7.9h-7.9-7.9-7.9v-7.9h-7.9v7.9h-7.9v7.9h-7.9v-7.9-7.9h-7.8v7.9v7.9v7.9v7.9h7.9v7.9h7.9v7.9h7.9v-7.9h7.9h7.9h7.9h7.9h7.9v7.9h7.9v-7.9h7.9v-7.9h7.9v-7.9-7.9-7.9-7.9h-8ZM69.7,42.1v7.9h-7.9v-7.9h7.9Zm-31.5,0v7.9h-7.9v-7.9h7.9Z"/></g></g></svg>
